<svg width="100" height="100" viewBox="0 0 100 100" fill="none" xmlns="http://www.w3.org/2000/svg">
<rect x="35.6964" y="36.7988" width="27.5498" height="27.5498" fill="white"/>
<path d="M51.1371 56.355L36.484 64.4218V34.519L51.1372 42.5866C51.1372 42.5866 51.1372 42.5866 51.1372 42.5867C54.9391 44.68 56.3242 49.4591 54.231 53.2612C53.5134 54.5643 52.4404 55.6373 51.1373 56.3549C51.1373 56.3549 51.1372 56.355 51.1371 56.355ZM42.8267 17.2958C37.4331 17.2958 32.881 20.8984 31.4455 25.8285L19.1671 19.002L19.1671 19.002C17.6309 18.148 15.9023 17.6998 14.1448 17.6998C8.43632 17.6998 3.80868 22.3274 3.80868 28.0359V73.4828C3.80868 74.9825 4.1911 76.4575 4.9198 77.7683L4.91983 77.7684C7.28663 82.0256 12.6566 83.5584 16.914 81.1917L16.9145 81.1914L31.4447 73.1103C32.8796 78.0416 37.4323 81.6452 42.8267 81.6452H83.9026C90.4484 81.6452 95.755 76.3391 95.755 69.793V29.1482C95.755 22.6023 90.4485 17.2958 83.9026 17.2958H42.8267Z" fill="#281751" stroke="white" stroke-width="5.50996"/>
</svg>
