<svg width="191" height="24" viewBox="0 0 191 24" fill="none" xmlns="http://www.w3.org/2000/svg">
<g clip-path="url(#clip0_743_1780)">
<path d="M44.1666 21.0202C45.2471 21.0202 46.2165 20.857 47.0748 20.5306C47.9332 20.2043 48.6735 19.76 49.2961 19.1979C49.9186 18.6357 50.4149 17.9967 50.7852 17.281C51.1554 16.5652 51.387 15.8207 51.4803 15.0474L47.8769 15.0309C47.7946 15.4807 47.648 15.8811 47.4368 16.2321C47.2256 16.583 46.961 16.8806 46.6429 17.1247C46.3248 17.3687 45.9614 17.5538 45.5528 17.68C45.1443 17.8062 44.7014 17.8692 44.2242 17.8692C43.3741 17.8692 42.6254 17.6608 41.9782 17.2439C41.3311 16.8272 40.8279 16.2101 40.4686 15.3929C40.1094 14.5757 39.9298 13.5665 39.9298 12.3655C39.9298 11.1972 40.108 10.2031 40.4644 9.38316C40.821 8.56322 41.3228 7.93797 41.97 7.50743C42.6172 7.07689 43.3768 6.86162 44.2489 6.86162C44.7315 6.86162 45.1799 6.93018 45.5939 7.06729C46.0081 7.2044 46.3742 7.40185 46.6923 7.65963C47.0104 7.9174 47.2709 8.22866 47.4738 8.59338C47.6767 8.95811 47.8111 9.37357 47.8769 9.83976H51.4803C51.3652 8.8635 51.1033 7.99693 50.6947 7.24006C50.286 6.48318 49.7582 5.84285 49.111 5.31907C48.4638 4.79529 47.722 4.39629 46.8856 4.12205C46.0492 3.84783 45.1428 3.71071 44.1666 3.71071C42.6858 3.71071 41.353 4.04939 40.1683 4.72673C38.9837 5.40408 38.0457 6.3872 37.3547 7.67608C36.6636 8.96497 36.3181 10.5281 36.3181 12.3655C36.3181 14.1972 36.6595 15.7577 37.3423 17.0465C38.0252 18.3354 38.9576 19.3199 40.1395 20C41.3215 20.6801 42.6638 21.0202 44.1666 21.0202ZM57.2847 20.7898V13.6406C57.2847 13.125 57.4013 12.6698 57.6343 12.2749C57.8674 11.8801 58.1855 11.5715 58.5886 11.3494C58.9918 11.1273 59.4511 11.0162 59.9667 11.0162C60.208 11.0162 60.474 11.0354 60.7646 11.0738C61.0553 11.1122 61.2829 11.1561 61.4475 11.2054V8.09565C61.294 8.05726 61.1157 8.02709 60.9127 8.00516C60.7098 7.98322 60.5206 7.97225 60.3451 7.97225C59.6376 7.97225 59.0123 8.17381 58.4693 8.57693C57.9264 8.98005 57.5397 9.57376 57.3094 10.3581H57.1777V8.15324H53.78V20.7898H57.2847ZM68.2276 21.0366C69.2696 21.0366 70.1897 20.8761 70.9877 20.5553C71.7857 20.2345 72.4384 19.7847 72.9458 19.2061C73.453 18.6275 73.789 17.9488 73.9535 17.17L70.7121 16.956C70.5914 17.2741 70.4159 17.5429 70.1856 17.7622C69.9552 17.9817 69.6783 18.1462 69.3546 18.2559C69.0311 18.3655 68.6746 18.4204 68.2852 18.4204C67.6984 18.4204 67.191 18.297 66.7632 18.0502C66.3354 17.8034 66.0049 17.4524 65.7718 16.9972C65.5388 16.542 65.4222 16.0017 65.4222 15.3764L65.4219 15.3687L74.0276 15.3682V14.4057C74.0276 13.3307 73.8767 12.3915 73.5751 11.588C73.2734 10.7845 72.8525 10.1167 72.3123 9.58472C71.772 9.05272 71.1413 8.65371 70.4201 8.38771C69.6989 8.1217 68.9214 7.9887 68.0877 7.9887C66.8482 7.9887 65.7691 8.26294 64.8504 8.81139C63.9318 9.35986 63.2202 10.125 62.7155 11.1067C62.211 12.0884 61.9587 13.2293 61.9587 14.5291C61.9587 15.8618 62.211 17.015 62.7155 17.9885C63.2202 18.9621 63.94 19.7134 64.8751 20.2427C65.8102 20.772 66.9277 21.0366 68.2276 21.0366ZM65.4295 13.1265C65.4589 12.6997 65.5744 12.3075 65.776 11.95C66.0063 11.5414 66.3258 11.215 66.7344 10.971C67.143 10.7269 67.6133 10.6048 68.1453 10.6048C68.6554 10.6048 69.1037 10.7159 69.4904 10.9381C69.8771 11.1602 70.1801 11.4659 70.3995 11.8554C70.6189 12.2447 70.7286 12.6918 70.7286 13.1964L65.4267 13.1966L65.4295 13.1265ZM79.7299 21.0284C80.355 21.0284 80.9063 20.9448 81.3832 20.7775C81.8609 20.6102 82.2691 20.3771 82.6094 20.0781C82.9497 19.7792 83.2206 19.4323 83.4235 19.0375H83.5225V20.7898H86.8466V12.2667C86.8466 11.5153 86.7012 10.8695 86.4104 10.3293C86.1196 9.78902 85.7234 9.34614 85.2217 9.00061C84.7192 8.65509 84.1464 8.40005 83.5018 8.23551C82.8579 8.07098 82.1844 7.9887 81.4822 7.9887C80.4733 7.9887 79.586 8.1409 78.8208 8.4453C78.0558 8.7497 77.4318 9.18298 76.9493 9.74515C76.4666 10.3073 76.143 10.9723 75.9785 11.7402L79.2199 12.0034C79.3406 11.5866 79.5873 11.2397 79.9604 10.9627C80.3335 10.6858 80.8352 10.5472 81.4655 10.5472C82.0638 10.5472 82.5255 10.6898 82.8523 10.975C83.1782 11.2603 83.3412 11.6634 83.3412 12.1844V12.2338C83.3412 12.5025 83.2397 12.7055 83.0368 12.8426C82.8339 12.9797 82.508 13.0825 82.0582 13.1511C81.6085 13.2197 81.0157 13.2923 80.2807 13.3691C79.6559 13.4295 79.0594 13.5336 78.4918 13.6817C77.9241 13.8298 77.4182 14.0492 76.9739 14.3398C76.5297 14.6305 76.1787 15.0145 75.9209 15.4916C75.6631 15.9688 75.5342 16.5584 75.5342 17.2604C75.5342 18.0941 75.7165 18.7893 76.0813 19.346C76.446 19.9026 76.9437 20.3222 77.5744 20.6047C78.2052 20.8872 78.9237 21.0284 79.7299 21.0284ZM80.7337 18.6097C80.1961 18.6097 79.7533 18.4849 79.4049 18.2353C79.0567 17.9858 78.8826 17.6224 78.8826 17.1453C78.8826 16.8162 78.9676 16.5405 79.1376 16.3185C79.3077 16.0963 79.5462 15.9194 79.8534 15.7878C80.1601 15.6562 80.5196 15.5602 80.931 15.4999C81.1227 15.4725 81.3368 15.4409 81.5725 15.4053C81.809 15.3697 82.0446 15.3285 82.2803 15.2819C82.516 15.2352 82.7285 15.1831 82.9178 15.1255C83.1071 15.0679 83.2565 15.0035 83.3659 14.9322V16.2732C83.3659 16.7175 83.2541 17.1151 83.0288 17.4661C82.8043 17.8171 82.4944 18.0955 82.0989 18.3012C81.7043 18.5068 81.249 18.6097 80.7337 18.6097ZM94.4278 20.9626C94.8831 20.9461 95.2698 20.9008 95.5877 20.8268C95.9057 20.7528 96.1525 20.6883 96.3283 20.6334L95.7771 18.0255C95.6892 18.042 95.563 18.0653 95.3984 18.0954C95.2338 18.1256 95.0693 18.1407 94.9047 18.1407C94.669 18.1407 94.4621 18.105 94.284 18.0338C94.105 17.9624 93.9668 17.8377 93.8678 17.6594C93.7695 17.4812 93.72 17.2303 93.72 16.9067V10.7864L96.0974 10.7859V8.15324L93.72 8.15339V5.12574H90.2154V8.15339L88.4874 8.15324V10.7859L90.2154 10.7864V17.3674C90.2106 18.1127 90.3496 18.7426 90.634 19.2569L90.7339 19.4241C91.0846 19.9671 91.5766 20.3675 92.2101 20.6252C92.8436 20.883 93.5826 20.9955 94.4278 20.9626ZM103.762 21.0366C105.039 21.0366 106.143 20.7637 107.073 20.218C108.002 19.6723 108.719 18.91 109.224 17.931C109.728 16.952 109.981 15.8153 109.981 14.5209C109.981 13.2155 109.728 12.0734 109.224 11.0944C108.719 10.1154 108.002 9.353 107.073 8.80728C106.143 8.26156 105.039 7.9887 103.762 7.9887C102.483 7.9887 101.379 8.26156 100.45 8.80728C99.5205 9.353 98.8031 10.1154 98.2983 11.0944C97.7942 12.0734 97.5417 13.2155 97.5417 14.5209C97.5417 15.8153 97.7942 16.952 98.2983 17.931C98.8031 18.91 99.5205 19.6723 100.45 20.218C101.379 20.7637 102.483 21.0366 103.762 21.0366ZM103.778 18.3217C103.191 18.3217 102.698 18.1558 102.301 17.824C101.904 17.4921 101.605 17.0383 101.404 16.4624C101.205 15.8865 101.104 15.2311 101.104 14.4962C101.104 13.7612 101.205 13.1058 101.404 12.5299C101.605 11.954 101.904 11.4989 102.301 11.1643C102.698 10.8297 103.191 10.6624 103.778 10.6624C104.359 10.6624 104.845 10.8297 105.234 11.1643C105.623 11.4989 105.918 11.954 106.118 12.5299C106.319 13.1058 106.419 13.7612 106.419 14.4962C106.419 15.2311 106.319 15.8865 106.118 16.4624C105.918 17.0383 105.623 17.4921 105.234 17.824C104.845 18.1558 104.359 18.3217 103.778 18.3217ZM115.583 20.7898V13.6406C115.583 13.125 115.699 12.6698 115.932 12.2749C116.166 11.8801 116.484 11.5715 116.887 11.3494C117.29 11.1273 117.749 11.0162 118.265 11.0162C118.506 11.0162 118.772 11.0354 119.063 11.0738C119.354 11.1122 119.582 11.1561 119.745 11.2054V8.09565C119.592 8.05726 119.414 8.02709 119.211 8.00516C119.008 7.98322 118.819 7.97225 118.644 7.97225C117.936 7.97225 117.31 8.17381 116.767 8.57693C116.225 8.98005 115.838 9.57376 115.607 10.3581H115.476V8.15324H112.078V20.7898H115.583ZM124.987 20.7898V16.0017L126.739 13.8627L131.355 20.7898H135.616L129.29 11.4851L135.543 3.94106H131.273L125.21 11.37H124.987V3.94106H121.425V20.7898H124.987ZM139.702 6.52432C140.223 6.52432 140.668 6.35018 141.038 6.00191C141.409 5.65363 141.593 5.23543 141.593 4.74731C141.593 4.26466 141.409 3.84919 141.038 3.50092C140.668 3.15265 140.22 2.97852 139.693 2.97852C139.178 2.97852 138.733 3.15265 138.36 3.50092C137.987 3.84919 137.801 4.26466 137.801 4.74731C137.801 5.23543 137.987 5.65363 138.36 6.00191C138.733 6.35018 139.18 6.52432 139.702 6.52432ZM141.438 20.7898V8.15324H137.933V20.7898H141.438ZM149.099 20.9626C149.555 20.9461 149.941 20.9008 150.259 20.8268C150.577 20.7528 150.824 20.6883 151 20.6334L150.449 18.0255C150.361 18.042 150.235 18.0653 150.07 18.0954C149.906 18.1256 149.741 18.1407 149.576 18.1407C149.341 18.1407 149.134 18.105 148.956 18.0338C148.777 17.9624 148.639 17.8377 148.54 17.6594C148.441 17.4812 148.392 17.2303 148.392 16.9067V10.7864L150.769 10.7859V8.15324L148.392 8.15339V5.12574H144.887V8.15339L143.159 8.15324V10.7859L144.887 10.7864V17.3674C144.882 18.1127 145.021 18.7426 145.306 19.2569L145.406 19.4241C145.756 19.9671 146.248 20.3675 146.882 20.6252C147.515 20.883 148.255 20.9955 149.099 20.9626Z" fill="white"/>
<path fill-rule="evenodd" clip-rule="evenodd" d="M13.5756 14.6656C14.0962 14.3789 14.5247 13.9503 14.8114 13.4298C15.6475 11.9112 15.0942 10.0022 13.5756 9.16607L8.03423 6.11514V5.90539C8.03423 4.41945 9.23883 3.21484 10.7248 3.21484H22.873C24.359 3.21484 25.5636 4.41945 25.5636 5.90539V17.9261C25.5636 19.4121 24.359 20.6166 22.873 20.6166H10.7248C9.23883 20.6166 8.03423 19.4121 8.03423 17.9261V17.7162L13.5756 14.6656ZM8.03415 17.5991L2.66524 20.5851C1.79941 21.0664 0.70731 20.7547 0.225971 19.8889C0.0777738 19.6223 0 19.3224 0 19.0174V5.57645C0 4.33816 1.00383 3.33433 2.24212 3.33433C2.62337 3.33433 2.99834 3.43154 3.33156 3.61679L8.03415 6.23134V17.5991Z" fill="white"/>
</g>
<defs>
<clipPath id="clip0_743_1780">
<rect width="191" height="24" fill="white"/>
</clipPath>
</defs>
</svg>
